<svg xmlns="http://www.w3.org/2000/svg" style="display:none">
  <symbol id="arrival" viewBox="0 0 24 24">
    <path d="M21 20c.55 0 1 .45 1 1s-.45 1-1 1H3c-.55 0-1-.45-1-1s.45-1 1-1h18zM9.74 2.1l1.89.52c.46.12.84.46 1.01.91l3 7.92 4.39 1.55c1.08.38 1.85 1.34 1.98 2.47.05.41.11.81-.19 1.15-.73.82-1.87 1.16-2.93.88L3.77 13.45c-.6-.16-1.04-.69-1.1-1.32l-.41-4.6c-.03-.35.29-.62.63-.53l1.62.43c.49.13.87.5 1.03.97l.32.94 4.46.69L9.12 2.67c-.06-.36.27-.66.62-.57z"/>
  </symbol>

  <symbol id="departure" viewBox="0 0 24 24">
    <path d="M21 20c.55 0 1 .45 1 1s-.39.94-.88 1L21 22H3c-.55 0-1-.45-1-1s.39-.94.88-1L3 20h18zM7.93 4.18L14.49 9.54l4.57-.86c1.13-.21 2.27.24 2.96 1.15l.16.22c.18.26.32.53.25.87-.22 1.08-1.03 1.94-2.1 2.23L5.21 17.2c-.61.16-1.25-.07-1.61-.58L.93 12.83c-.2-.28-.06-.68.28-.77l1.62-.44c.49-.13 1 .01 1.38.33l.75.65 4.2-1.64c.01-.01.01-.01 0-.02L4.45 5.2c-.23-.28-.1-.71.25-.8l1.89-.51c.47-.12.97-.02 1.34.29z"/>
  </symbol>

  <symbol id="add" viewBox="0 0 21 20">
    <path d="M12.05,9 L15.2,9 L15.2,11 L12.05,11 L12.05,14 L9.95,14 L9.95,11 L6.8,11 L6.8,9 L9.95,9 L9.95,6 L12.05,6 L12.05,9 Z M11,18 C6.36845,18 2.6,14.411 2.6,10 C2.6,5.589 6.36845,2 11,2 C15.63155,2 19.4,5.589 19.4,10 C19.4,14.411 15.63155,18 11,18 Z M11,0 C5.20085,0 0.5,4.477 0.5,10 C0.5,15.523 5.20085,20 11,20 C16.79915,20 21.5,15.523 21.5,10 C21.5,4.477 16.79915,0 11,0 Z"/>
  </symbol>

  <symbol id="lens" viewBox="0 0 24 24">
    <path d="M10 17C13.866 17 17 13.866 17 10C17 6.13401 13.866 3 10 3C6.13401 3 3 6 3 10C3 13.866 6.13401 17 10 17Z" fill="none" stroke="#FFFFFF" stroke-width="2" stroke-linecap="round" stroke-linejoin="round"/>
    <path d="M20.9992 21L14.9492 14.95" fill="none" stroke="#FFFFFF" stroke-width="2" stroke-linecap="round" stroke-linejoin="round"/>
  </symbol>

  <symbol id="calendar" viewBox="0 0 24 24">
    <path d="M9,10V12H7V10H9M13,10V12H11V10H13M17,10V12H15V10H17M19,3A2,2 0 0,1 21,5V19A2,2 0 0,1 19,21H5C3.89,21 3,20.1 3,19V5A2,2 0 0,1 5,3H6V1H8V3H16V1H18V3H19M19,19V8H5V19H19M9,14V16H7V14H9M13,14V16H11V14H13M17,14V16H15V14H17Z"/>
  </symbol>

  <symbol id="swap" viewBox="0 0 16 16">
    <path d="M9.25 6.12V4.87h-7l3-2.05-.71-1L.59 4.45A1.29 1.29 0 0 0 0 5.5a1.29 1.29 0 0 0 .59 1l3.93 2.72.71-1-3-2.06zm6.16 3.33-3.93-2.67-.71 1 3 2.06h-7v1.25h7.03l-3 2 .71 1 3.93-2.67a1.23 1.23 0 0 0 0-2.1z"/>
  </symbol>

  <symbol id="arrow-up" viewBox="0 0 24 24">
    <path d="M18.2929 15.2893C18.6834 14.8988 18.6834 14.2656 18.2929 13.8751L13.4007 8.98766C12.6195 8.20726 11.3537 8.20757 10.5729 8.98835L5.68257 13.8787C5.29205 14.2692 5.29205 14.9024 5.68257 15.2929C6.0731 15.6835 6.70626 15.6835 7.09679 15.2929L11.2824 11.1073C11.673 10.7168 12.3061 10.7168 12.6966 11.1073L16.8787 15.2893C17.2692 15.6798 17.9024 15.6798 18.2929 15.2893Z"/>
  </symbol>

  <symbol id="arrow-down" viewBox="0 0 24 24">
    <path d="M5.70711 9.71069C5.31658 10.1012 5.31658 10.7344 5.70711 11.1249L10.5993 16.0123C11.3805 16.7927 12.6463 16.7924 13.4271 16.0117L18.3174 11.1213C18.708 10.7308 18.708 10.0976 18.3174 9.70708C17.9269 9.31655 17.2937 9.31655 16.9032 9.70708L12.7176 13.8927C12.3271 14.2833 11.6939 14.2832 11.3034 13.8927L7.12132 9.71069C6.7308 9.32016 6.09763 9.32016 5.70711 9.71069Z"/>
  </symbol>
</svg>
